# xmcd
#
# Track frame offsets: 
#        150
#        20443
#        39762
#        62553
#        77038
#        99754
#        117739
#        137011
#        152601
#        166892
#        183171
#        199351
#        219166
#        236885
#        251352
#        270827
#
# Disc length: 3903 seconds
#
# Revision: 4
# Processed by: cddbd v1.5.2PL0 Copyright (c) Steve Scherf et al.
# Submitted via: ExactAudioCopy v1.0b3
#
DISCID=c70f3d10
DTITLE=Alcione - Uma Nova Paixão
DYEAR=2005
DGENRE=Latin-Br-Samba
TTITLE0=Uma Nova Paixão
TTITLE1=O Samba Vai Balançar
TTITLE2=Coração De Porcelana
TTITLE3=Sentimental Demais
TTITLE4=Jóia Rara
TTITLE5=Corpo Fechado
TTITLE6=Causa Perdida
TTITLE7=Meu Ébano
TTITLE8=Umas E Outras
TTITLE9=Palavra De Homem - Palavra De Mulher
TTITLE10=Xequeré
TTITLE11=Se Não É Amor
TTITLE12=Você Brincou De Amor
TTITLE13=Pedra 90
TTITLE14=Boi de Lágrimas
TTITLE15=Obrigada
EXTD=
EXTT0=
EXTT1=
EXTT2=
EXTT3=
EXTT4=
EXTT5=
EXTT6=
EXTT7=
EXTT8=
EXTT9=
EXTT10=
EXTT11=
EXTT12=
EXTT13=
EXTT14=
EXTT15=
PLAYORDER=
